# xmcd CD database file
#
# Track frame offsets:
#	150
#	9825
#	21525
#	34098
#	47385
#	61275
#	72720
#	84808
#	96199
#	108934
#	121553
#	134150
#	145573
#	157504
#	169964
#	182416
#	191948
#	203404
#	216006
#	227135
#	239398
#	250904
#
# Disc length: 3480 seconds
#
# Revision: 0
# Processed by: cddbd v1.4PL0 Copyright (c) Steve Scherf et al.
# Submitted via: CDex 1.40Release
#
DISCID=200d9616
DTITLE=Lightnin'_Hopkins - Lightnin'_Boogie
DYEAR=2000
DGENRE=Blues
TTITLE0=Feel_So_Bad
TTITLE1=T-Model_Blues
TTITLE2=Fast_Mail_Rambler
TTITLE3=Moon_Rise_Blues
TTITLE4=Untrue_Blues
TTITLE5=Can't_Do_Like_You_Used_To
TTITLE6=You_Don't_Know
TTITLE7=Let_Me_Play_With_Your_Poodle
TTITLE8=Baby,Please_Don't_Go
TTITLE9=Lightnin'_Boogie
TTITLE10=Walking_Blues
TTITLE11=Big_Mama_Jump
TTITLE12=Someday_Baby
TTITLE13=Shinig_Moon
TTITLE14=Short_Haired_Woman
TTITLE15=Henny_Penny_Blues
TTITLE16=Mercy
TTITLE17=Picture_On_The_Wall
TTITLE18=Mad_With_You
TTITLE19=Mama's_Baby_Child
TTITLE20=Honey_Babe
TTITLE21=Down_Baby
EXTD=YEAR: 2000 ID3G: 0
EXTT0=
EXTT1=
EXTT2=
EXTT3=
EXTT4=
EXTT5=
EXTT6=
EXTT7=
EXTT8=
EXTT9=
EXTT10=
EXTT11=
EXTT12=
EXTT13=
EXTT14=
EXTT15=
EXTT16=
EXTT17=
EXTT18=
EXTT19=
EXTT20=
EXTT21=
PLAYORDER=
